<?xml version="1.0" encoding="utf-8"?>
<!-- Generator: Adobe Illustrator 26.0.1, SVG Export Plug-In . SVG Version: 6.00 Build 0)  -->
<svg version="1.1" id="Layer_1" xmlns="http://www.w3.org/2000/svg" xmlns:xlink="http://www.w3.org/1999/xlink" x="0px" y="0px"
	 viewBox="0 0 1500.48 302.4" style="enable-background:new 0 0 1500.48 302.4;" xml:space="preserve">
<style type="text/css">
	.st0{fill:#FFFFFF;}
	.st1{fill:#25AAE1;}
	.st2{fill:#084868;}
	.st3{fill:#0F7BA7;}
	.st4{fill:#1E313A;}
	.st5{fill:#0F7BA7;stroke:#0F7BA7;stroke-width:15;}
</style>
<g>
	<path class="st4" d="M272.38,77.26l-48.08,0.65l-46.62,99.66L123.64,79.3l-46.77,0.63l2.21,161.78l35.64-0.5l-1.25-91.18
		l49.8,90.51l22.48-0.29l41.76-90.36l1.23,89.76l45.83-0.63L272.38,77.26z"/>
	<path class="st4" d="M379.56,75.8l-48.33,0.65l2.23,161.76l48.31-0.65L379.56,75.8z"/>
	<path class="st4" d="M596.85,234.61l-2.23-161.74l-37.06,0.5l1.29,93.68L475.02,74.5l-41.46,0.56l2.34,171.24l36.58-36.05
		l-0.94-69.03l88.92,93.89L596.85,234.61z"/>
	<path class="st4" d="M812,122.3c-2.13-8.22-4.88-15.09-8.28-20.61c-3.39-5.52-7.7-10.24-12.93-14.15
		c-5.22-3.91-10.44-6.92-15.64-9.02c-5.2-2.1-11.36-3.75-18.48-4.96c-7.12-1.21-13.53-1.93-19.22-2.17
		c-5.69-0.24-12.32-0.31-19.9-0.2l-65.25,0.89l0.46,33.36h47.26l0-0.26l20.96-0.29c16.26-0.22,27.71,2.84,34.35,9.18
		c6.64,6.34,10.08,18.12,10.31,35.33c0.26,19.18-2.5,32.21-8.29,39.08c-5.79,6.87-17.17,10.42-34.14,10.65l-19.04,0.26v0.23h-50.12
		l0.47,34.21l65.25-0.89l2.37-0.03c4.42-0.06,7.91-0.15,10.48-0.26c2.56-0.11,6.65-0.41,12.25-0.88s10.21-1.19,13.83-2.14
		c3.62-0.96,8.16-2.44,13.62-4.45c5.46-2.01,10.03-4.34,13.7-7c3.68-2.65,7.56-6.1,11.64-10.34c4.09-4.24,7.34-9,9.75-14.29
		c2.42-5.29,4.38-11.61,5.9-18.97c1.52-7.36,2.22-15.51,2.09-24.43C815.26,139.8,814.13,130.52,812,122.3z"/>
	<path class="st4" d="M948.61,136.48l77.1-69.52l-51.16,0.71l-74.32,66.03l-0.88-65l-47.25,0.63l2.21,161.76l47.25-0.65l-0.69-51.4
		l14.16-12.62l55.94,63.08l59.2-0.81L948.61,136.48z"/>
	<path class="st4" d="M1203.55,192.58l-94.85,1.3l-0.42-31.04l40.61-0.56l23.25-32.54l-64.31,0.88l-0.44-31.02l94.87-1.29
		l-0.46-33.76l-142.1,1.94l2.21,161.76l142.1-1.96L1203.55,192.58z"/>
	<path class="st4" d="M1415.67,61.65l-38.71,0.52l-52.81,78.31l-49.86-76.91l-51.63,0.71l73.05,111.04l0.69,49.75l47.6-0.65
		l-0.69-50.69L1415.67,61.65z"/>
</g>
</svg>
