<?xml version="1.0" encoding="utf-8"?>
<!-- Generator: Adobe Illustrator 26.0.1, SVG Export Plug-In . SVG Version: 6.00 Build 0)  -->
<svg version="1.1" id="Layer_1" xmlns="http://www.w3.org/2000/svg" xmlns:xlink="http://www.w3.org/1999/xlink" x="0px" y="0px"
	 viewBox="0 0 1080 1080" style="enable-background:new 0 0 1080 1080;" xml:space="preserve">
<style type="text/css">
	.st0{fill:#FFFFFF;}
	.st1{fill:#25AAE1;}
	.st2{fill:#084868;}
	.st3{fill:#0F7BA7;}
	.st4{fill:#1E313A;}
	.st5{fill:#0F7BA7;stroke:#0F7BA7;stroke-width:15;}
</style>
<path class="st0" d="M780.04,1080H299.96C134.3,1080,0,945.7,0,780.04V299.96C0,134.3,134.3,0,299.96,0h480.08
	C945.7,0,1080,134.3,1080,299.96v480.08C1080,945.7,945.7,1080,780.04,1080z"/>
<g>
	<g>
		<path class="st1" d="M650.75,475.83l-0.18-0.27c-0.58-0.89-1.13-1.72-1.4-2.62c-0.39-1.29-0.23-2.73-0.06-4.26l0.09-0.8
			c1.71-16.87-8.8-26.88-18.96-36.56c-3.35-3.19-6.82-6.5-9.83-10.02l-0.4-0.47c-0.83-0.98-1.68-1.98-2.69-2.87
			c-9.29-8.17-21.84-13.24-34.43-13.9c-12.74-0.67-27.9,2.89-32.25,14.9c-2.11,5.82-4.57,11.89-9.29,16.59
			c-0.24,0.02-0.48,0.03-0.72,0.05c-3.75-2.09-7.35-4.41-7.65-7.66c-1.78-18.91-19.33-24.56-33.83-23.66
			c-7.87,0.49-15.84,2.51-23.07,5.83c-2.94,1.35-6.34,3.06-9.21,5.42c-2.28,1.88-3.83,4.26-5.34,6.56c-1.4,2.14-2.72,4.16-4.56,5.76
			c-1.02,0.88-2.32,1.36-3.7,1.86c-1.91,0.7-4.06,1.48-5.46,3.54c-6.33,4.19-11.94,11.41-14.35,18.46
			c-0.96,2.81-3.9,12.55-1.46,19.74c0.66,1.96-2.91,7.21-5.28,10.68c-1.58,2.33-2.95,4.33-3.52,5.77
			c-4.98,12.57-4.67,29.4,0.79,41.89c2.24,5.13,2.29,10.56,2.34,16.3c0.02,2.12,0.04,4.3,0.18,6.45c0.24,3.71,0.81,8.53,3.04,12.9
			c0.77,1.5,1.6,2.9,2.4,4.25c1.43,2.42,2.79,4.71,3.77,7.46c6.03,16.86,14,28.04,24.37,34.17c3.23,1.9,5.96,3.47,8.84,4.89
			c2.34,1.16,4.77,2.21,7.21,3.14c6.56,2.48,16.2,5.31,24.21,1.29c4.22-2.12,7.42-5.92,9.52-11.3c0.75-1.93,1.13-4.18,1.49-6.36
			c0.39-2.36,0.79-4.78,1.67-6.63c1.59,1.06,2.42,3.08,3.28,5.2c0.5,1.23,1.02,2.51,1.71,3.59c2.73,4.28,7.23,7.27,11.2,9.91
			l0.5,0.33c2.27,1.51,4.62,3.08,7.36,3.94c13,4.07,27.14-12.97,30.76-22.86c0.06-0.18,0.13-0.33,0.19-0.48
			c0.49,0.98,0.62,2.36,0.74,3.71c0.08,0.85,0.16,1.74,0.34,2.54c0.94,4.29,2.55,8.36,4.79,12.11c1.73,2.9,3.47,4.94,5.47,6.44
			c2.67,1.99,5.82,2.79,9.19,2.79c9.33,0,20.28-6.11,26.98-9.86l0.5-0.28c6.52-3.64,12.04-8.05,16.39-13.11
			c5.23-6.08,10.64-16.58,12.88-24.97c0.96-3.61,2.74-6.92,4.45-10.12c2.68-4.98,5.44-10.14,5.36-16.66
			c-0.02-1.87-0.27-3.72-0.5-5.51c-0.21-1.59-0.42-3.23-0.47-4.83c-0.09-2.95,1.06-5.66,2.28-8.53l0.25-0.58
			c0.42-0.99,0.9-2.14,1.28-3.31C663.25,509.89,660.48,490.74,650.75,475.83z M620.73,511.01c-3.38,0.33-5.62,2.03-6.47,4.91
			c-0.85,2.88-0.01,5.46,2.5,7.66c1.42,1.26,2.12,2.41,2.07,3.41c-0.05,1-0.87,2.07-2.42,3.18c-0.59,0.42-1.25,0.85-1.92,1.28
			c-3.83,2.49-9.07,5.91-6.02,11.93c1.99,3.94,5.57,4.93,10.62,2.92c5.78-2.29,10.16-6.37,13.79-12.85
			c0.09-0.16,0.18-0.34,0.28-0.53c0.55-1.07,1.11-2,1.64-1.86c0.41,0.11,0.81,0.56,1.18,1.03c4.91,6.28,8.79,23.12,1.84,28.6
			c-0.23,0.18-0.48,0.33-0.74,0.48c-0.33,0.2-0.67,0.4-0.97,0.64c-0.66,0.52-1.14,1.14-1.6,1.75c-0.19,0.25-0.37,0.49-0.57,0.72
			c-1.62,1.9-4.33,3.05-7.43,3.17c-1.23,0.04-2.74-0.29-4.22-0.61c-2.78-0.61-5.65-1.23-7.79,0.18c-1.2,0.79-1.98,2.15-2.33,4.02
			l-0.24,1.3c-1.25,6.81-1.82,9.92-8.57,12.82c-2.03,0.88-3.41,2.15-3.98,3.69c-0.52,1.39-0.38,2.92,0.41,4.55
			c1.63,3.34,4.8,4.24,8.7,2.46c7.23-3.3,11.66-7.52,13.93-13.3c0.99-2.53,2.37-2.61,5.39-2.58c0.25,0,0.5,0.01,0.76,0.01
			c-1.62,1.92-3.14,4.56-4.63,7.16c-1.3,2.27-2.54,4.42-3.54,5.48c-5.76,6.09-12.54,8.81-19.72,11.69
			c-4.08,1.64-8.29,3.33-12.38,5.7c-3-1.92-4.37-5.74-4.99-8.7c-1.64-7.72-3.15-13.78-7.75-21.37c0.07-0.59,0.02-1.16-0.02-1.69
			c-0.05-0.67-0.07-1.14,0.01-1.49c5.37,3.94,11.47,5.55,18.14,4.76c2.24-0.26,3.86-1.05,4.82-2.35c0.85-1.15,1.12-2.61,0.81-4.35
			c-0.89-4.93-6.05-5.3-8.26-5.46c-0.59-0.04-1.13-0.07-1.64-0.1c-3.01-0.16-4.52-0.24-7.18-2.52c-4.92-4.24-6.19-10.67-3.75-19.12
			c2.57-2.33,5.14-4.65,7.71-6.97c2.34-0.42,4.04-1.42,4.93-2.92c0.57-0.98,1.07-2.65,0.15-5.09c-0.64-1.7-1.63-2.84-2.95-3.38
			c-2.17-0.9-4.71,0.04-6.44,0.83c-6.05,2.75-11.04,7.21-14.44,12.88c-3.18,5.31-3.03,11.79-2.9,17.51l0.04,1.75
			c0.1,5.58-1.7,11.78-5.19,17.91l-0.28,0.48c-0.64,1.11-1.3,2.26-1.66,3.58c-0.42,1.54-0.52,3.04-0.61,4.48
			c-0.1,1.67-0.2,3.25-0.8,4.82c-1.92,5.02-11,12.98-16.58,11.97c-1.01-0.18-1.95-0.82-2.81-1.48c-4.35-3.33-7.75-8-9.58-13.16
			c-0.74-2.1-1.57-4.23-2.45-6.49c-3.3-8.51-7.05-18.16-6.15-26.83c1.23-11.94-7.06-24.91-18.48-28.92
			c-1.83-0.64-7.38-2.6-10.21,2.8c-2.04,3.91-0.73,7.88,3.35,10.11c6.64,3.63,10.89,13.58,8.92,20.87
			c-0.92,3.39-3.58,7.38-10.76,7.29c-1.47-0.91-3.21-0.48-4.76-0.1c-0.68,0.17-1.32,0.32-1.89,0.36c-0.31,0.02-0.6,0.16-0.8,0.4
			c-2.94,3.37-3.03,5.97-2.6,7.56c0.41,1.51,1.7,3.57,5.51,4.84c4.6,1.54,8.88,0.29,13.03-0.91l0.77-0.22
			c0.64-0.19,1.22-0.48,1.77-0.76c0.8-0.41,1.4-0.69,1.98-0.7c0.58,3.2-0.82,5.8-2.44,8.77c-1.44,2.66-2.93,5.4-3.17,8.89
			l-0.09,1.36c-0.25,4.05-0.5,8.24-2.96,11.08c-0.11,0.13-0.18,0.19-0.18,0.21c-0.09-0.03-0.26-0.1-0.35-0.15
			c-2.87-1.35-5.99-1.96-9-2.54c-2.87-0.56-5.59-1.08-7.99-2.2c-4.52-2.11-10.7-6.87-14.82-10.65c-4.41-4.05-8.1-8.86-10.96-14.32
			c2.52,1.37,4.58,3.62,6.71,7.2c2.86,4.79,7.56,8.18,13.57,9.82c3.68,1,6.78-0.26,8.51-3.47c1.95-3.65,0.43-7.45-4.26-10.71
			c-3.9-2.7-6.68-4.92-6.99-8.94c-0.71-9.27-6.84-9.27-12.24-9.28c-2.74,0-5.57-0.01-7.95-1.04c-8.49-3.69-10.5-14.91-8.72-24.39
			c0.67-3.57,4.47-7.92,7.94-10.23c1.95,6.74,6.73,11.79,14.58,15.41c2.5,1.16,4.41,1.41,6.03,0.78c1.33-0.51,2.35-1.61,3.05-3.26
			c0.68-1.61,0.74-3.09,0.19-4.42c-0.63-1.53-2.05-2.75-4.2-3.62c-4.34-1.78-7.27-4.66-8.94-8.79c-0.11-0.7-0.08-1.18,0.09-1.4
			c0.12-0.15,0.5-0.42,1.74-0.51c1.6-0.12,2.93-0.77,3.83-1.89c0.95-1.17,1.34-2.77,1.11-4.52c-0.42-3.14-2.65-4.91-6.28-4.98
			c-6.55-0.15-11.35,0.94-15.55,3.53c-3.24,1.99-5.47,3.56-7.89,5.99c-0.43-0.71-0.7-1.46-0.81-2.24c-0.24-1.77-0.21-3.74-0.18-5.63
			c0.02-1.27,0.04-2.58-0.02-3.84c-0.15-3.05-0.31-6.51,0.25-9.8c0.54-3.16,1.77-6.45,2.97-9.63l0.06-0.15
			c0.4-1.06,0.71-2.27,1.05-3.54c0.64-2.45,1.31-4.99,2.56-6.44c0.51-0.59,0.78-0.66,0.77-0.67c0.52,0.21,1.25,2.38,1.61,3.42
			c0.36,1.08,0.7,2.1,1.14,2.81c1.58,2.6,3.57,4.93,5.9,6.93c4.73,4.03,10.27,6.19,15.67,6.08c4.27-0.08,6.59-1.77,6.91-5.03
			c0.18-1.77-0.21-3.25-1.14-4.38c-1.05-1.27-2.72-2.02-4.95-2.21c-5.49-0.48-13.14-4.74-14.08-11.35c0.57,0.2,1.16,0.41,1.75,0.61
			c1.28,0.45,2.6,0.91,3.86,1.34c3.27,1.1,7.47,0.14,9.76-2.24c1.75-1.82,2.2-4.19,1.26-6.69c-2.89-7.66-17.1-8.12-21.94-7.43
			c-0.78,0.11-1.76,0.13-2.07-0.39c-1.19-2.03,3.12-9.82,5.86-13.39c0.76-0.99,1.69-2.03,2.78-2.22c1.28-0.22,3.1,3.22,4.18,5.28
			c0.71,1.35,1.31,2.51,1.93,3.24c3,3.5,6.86,6.18,11.18,7.75c3.74,1.36,8.5,0.27,10.63-2.43c0.95-1.21,2.19-3.79-0.26-7.47
			c-1.65-2.48-4.03-4.1-6.34-5.67c-3.84-2.61-7.16-4.87-6.37-10.57c1.65-11.91,16.46-15.84,22.75-16.97l1.15-0.21
			c4.44-0.81,9.04-1.66,13.41-0.73c1.43,0.41,9.18,4.86,11.06,6.78c-1.07,0.36-2.44,0.5-3.87,0.65c-1.63,0.17-3.32,0.34-4.81,0.87
			c-3.16,1.12-8.66,3.57-9.93,7.34c-0.54,1.6-0.28,3.22,0.76,4.81c3.07,4.68,8.24,2.07,12.02,0.16c1.34-0.67,2.6-1.31,3.63-1.6
			c0.46-0.13,0.91-0.24,1.25-0.18c0.39,0.07,0.83,0.41,1.23,0.71c7.27,5.59,11.03,9.8,12.72,18.62c1.15,5.97,1.09,12.14,1.03,18.11
			c-0.01,1.39-0.03,2.78-0.03,4.14c-0.04,1.45-0.12,2.85-0.62,4.06c-0.62,1.54-2.66,2.94-4.63,4.31c-3.44,2.38-7.72,5.34-4.88,10.11
			c2.46,4.13,6.14,2.64,8.83,1.56c0.3-0.12,0.6-0.24,0.9-0.36c1.57-0.61,2.83-1.94,4.04-3.22c1.19-1.26,2.31-2.44,3.44-2.66
			c1.19-0.22,3.1,1.5,4.8,3.02c1.35,1.21,2.75,2.46,4.12,3.11c2.44,1.14,6.32,1.53,8.71-0.01c1.02-0.66,2.24-1.95,2.22-4.39
			c-0.03-3.52-3.23-5.54-6.05-7.32c-1.31-0.83-2.55-1.6-3.28-2.42c-4.34-4.78-5.1-26.02-0.03-38.77c1.47-3.7,4.08-8.17,8.16-8.48
			c2.18-0.17,5.6,1.45,8.61,2.87c1.63,0.77,3.16,1.5,4.44,1.91c2.32,0.76,4.47,0.53,6.08-0.64c1.62-1.18,2.5-3.19,2.49-5.64
			c-0.03-5.57-4.47-8.12-8.63-10.08c-1.82-0.86-3.73-1.23-5.58-1.6c-0.7-0.14-1.38-0.27-2.04-0.43c1.43-1.3,2.49-2.92,3.52-4.51
			l0.36-0.55c0.96-1.47,2.62-2.41,4.93-2.8c9.26-1.55,25.86,6.02,30.69,9.76c2.01,1.56,3.65,3.42,4.89,5.55
			c0.64,1.1,0.98,2.58,1.3,4.01c0.36,1.6,0.73,3.26,1.57,4.57c0.12,0.19,0.25,0.36,0.39,0.52c-0.31,1.27-3.28,5.21-4.16,6.12
			c-0.86,0.89-2.42,1.72-4.07,2.61c-3.77,2.02-8.45,4.54-6.65,9.33c1.34,3.57,4.28,4.75,8.27,3.34c4.66-1.64,8.88-4.42,11.9-7.8
			c1.61-1.81,2.54-4.26,3.45-6.63c0.8-2.09,1.56-4.08,2.67-5.35c4,2.87,12.43,13.43,13.89,20.14c0.36,1.63,0.25,2.84-0.23,3.54
			c-0.01,0-0.28,0.08-1.13-0.29c-6.46-2.79-13.79-2.4-21.21,1.11c-5.7,2.69-5.12,6.49-4.27,8.51c1.11,2.65,3.32,3.93,5.88,3.44
			c1.09-0.21,2.03-0.66,2.95-1.11c0.22-0.1,0.43-0.21,0.65-0.31c1.01-0.47,2.08-0.86,3.16-1.15c1.21-0.33,2.01-0.33,2.52,0
			c0.39,0.25,0.49,0.32-0.21,1.73c-0.37,0.75-0.78,1.58-0.77,2.47c-2.64,4.54-6.87,7.06-13.56,8.15c-1.92,0.14-3.43,0.85-4.37,2.04
			c-0.92,1.15-1.25,2.71-0.97,4.49c0.56,3.61,3.31,5.39,7.56,4.9c11.2-1.29,19.61-7.52,22.49-16.66l0.11-0.35
			c0.24-0.77,0.46-1.5,0.89-1.98c0.22-0.25,0.4-0.36,0.54-0.34c1.52,0.26,3.79,5.85,4.53,7.69c0.32,0.78,0.57,1.4,0.76,1.78
			c2.21,4.31,3.44,9.46,3.87,16.22c0.04,0.59,0.13,1.44,0.25,2.43c0.34,3,1.06,9.26-0.14,10.74c-0.02,0.03-0.15,0.11-0.45,0.14
			c-1.39,0.15-2.82-0.94-4.2-1.99l-0.43-0.33C635.66,512.21,628.36,510.26,620.73,511.01z"/>
	</g>
	<g>
		<path class="st2" d="M474.76,810.9c9.09,0.03,18.26,0.03,27.38,0.03c7.48,0,14.92-0.01,22.25-0.01l15.61-0.01
			c6.9,0,13.79,0,20.69,0c15.04,0.01,30.08,0.01,45.12-0.03c9.97-0.03,16.76-6.17,16.88-15.29c0.06-4.46-1.4-8.33-4.21-11.21
			c-3.05-3.12-7.45-4.79-12.71-4.83c-5.35-0.04-10.77-0.03-16.02-0.01c-2.63,0.01-5.26,0.01-7.89,0.01l-30.45,0
			c-25.38,0-50.75-0.01-76.12,0.01c-9.85,0.01-16.32,5.13-17.3,13.7c-0.56,4.88,0.66,9.15,3.51,12.37
			C463.62,808.02,467.65,810.88,474.76,810.9z"/>
		<path class="st2" d="M605.93,815.82c-45.27-0.05-89.29-0.05-130.81,0c-10.66,0.01-17.09,5.8-17.21,15.47
			c-0.06,4.62,1.29,8.36,4,11.11c3.03,3.07,7.58,4.64,13.51,4.65c14.68,0.02,29.37,0.02,44.05,0.01l20.48,0l17.39,0
			c6.91,0,13.81,0,20.72,0c9.2,0,18.4,0,27.59-0.02c5.5-0.01,9.8-1.55,12.8-4.57c1.9-1.92,4.16-5.42,4.12-11.19
			C622.51,821.9,615.98,815.83,605.93,815.82z"/>
		<path class="st2" d="M597.95,851.65l-0.14,0c-1.84,0.04-3.68,0.06-5.52,0.06c-6.42,0-12.83,0-19.25-0.01
			c-10.65-0.01-21.65-0.02-32.49,0.03l-3.47,0.02c-4.45,0.02-8.91,0.06-13.36,0.1c-12.43,0.12-25.28,0.23-37.87-0.09
			c-0.25-0.01-0.54-0.05-0.85-0.09c-2.06-0.24-8.34-0.97-10.42,4.71c-1.15,3.15-0.43,6.66,2.04,9.88c1.25,1.63,2.67,3.07,4.23,4.26
			c17.01,13.02,38.28,19.53,59.5,19.53c21.24,0,42.43-6.52,59.28-19.56c1.55-1.2,2.96-2.61,4.19-4.17c2.48-3.16,3.29-6.73,2.25-9.79
			C604.92,853.19,602.19,851.56,597.95,851.65z"/>
	</g>
	<path class="st3" d="M770.02,721.12c-7.37-7.33-14.71-14.67-22.06-22.02c-4.84-4.84-9.67-9.68-14.52-14.51l0,0
		c-1.36-1.36-2.71-2.73-4.06-4.11c-3.71-3.78-7.54-7.7-11.73-11.34c-5.37-4.67-12.49-6.17-19.03-4.02
		c-6.55,2.16-11.38,7.58-12.93,14.49c-2.34,10.48,4.43,17.24,6.66,19.45c8.64,8.61,17.26,17.24,25.89,25.86
		c8.08,8.08,16.17,16.17,24.26,24.24c1.56,1.55,3.47,3.33,5.85,4.69c3.06,1.76,6.35,2.63,9.65,2.63c3.23,0,6.47-0.84,9.49-2.53
		c6.4-3.58,10.06-9.84,10.04-17.12C777.56,728.61,772.28,723.36,770.02,721.12z"/>
	<g>
		<path class="st3" d="M540.37,304.23c0.02,0,0.04,0,0.06,0c11.53-0.03,19.6-8.69,19.62-21.05c0.04-22.32,0.05-45.72,0.01-71.54
			c-0.01-6.75-2.11-12.4-6.07-16.34c-3.54-3.52-8.21-5.42-13.57-5.34c-11.67,0.05-19.55,8.73-19.61,21.61
			c-0.03,7.94-0.03,15.88-0.02,23.82c0,3.7,0.01,7.4,0.01,11.1v0c0,3.47-0.01,6.94-0.01,10.41c-0.01,8.61-0.03,17.51,0.03,26.28
			C520.9,295.58,528.93,304.23,540.37,304.23z"/>
		<path class="st3" d="M862.95,505.09c-2.7-2.74-7.69-6.02-16.14-6.05c-22.52-0.08-45.92-0.08-71.55,0.01
			c-12.48,0.04-21.05,7.77-21.31,19.23c-0.12,5.25,1.74,10.12,5.22,13.7c3.91,4.01,9.69,6.24,16.29,6.26
			c4.84,0.02,9.68,0.02,14.52,0.02c3.3,0,6.6,0,9.9-0.01l11.06-0.01l10.04,0c8.48,0.01,16.95,0.01,25.43-0.01
			c13.1-0.03,21.66-7.59,21.81-19.25C868.31,513.49,866.48,508.68,862.95,505.09z"/>
		<path class="st3" d="M772.02,314.58c4.31-4.31,6.38-9.28,6.16-14.73c-0.27-7.9-4.41-14.23-11.37-17.36
			c-7.78-3.51-16.03-2.02-22.06,3.98l-3.1,3.08c-16.28,16.19-33.11,32.93-49.57,49.52c-4.05,4.08-6.24,9.3-6.18,14.72
			c0.06,5.22,2.21,10.12,6.05,13.81c3.76,3.62,8.49,5.41,13.28,5.41c5.16,0,10.39-2.09,14.57-6.23v0
			c12.55-12.44,25.23-25.14,37.49-37.43C762.19,324.43,767.1,319.5,772.02,314.58z"/>
		<path class="st3" d="M382.83,665.47c-8.08-3.61-16.28-2.11-22.51,4.12c-5.81,5.81-11.62,11.61-17.43,17.41
			c-11.41,11.39-23.22,23.17-34.78,34.81c-4.16,4.18-6.41,9.47-6.35,14.89c0.06,5.1,2.17,9.91,5.94,13.55
			c3.94,3.8,8.68,5.68,13.47,5.68c5.16,0,10.39-2.19,14.76-6.53c11.48-11.4,23.1-23.03,34.33-34.28
			c5.83-5.84,11.66-11.67,17.49-17.5c4.37-4.37,6.47-9.31,6.24-14.7C393.83,674.93,389.77,668.57,382.83,665.47z"/>
		<path class="st3" d="M340.49,345.87c6.75,6.75,13.51,13.5,20.25,20.27v0c3.77,3.78,8.55,5.93,13.84,6.22l0.56,0.03l0.56-0.04
			c8.06-0.59,14.17-4.64,17.2-11.4c3.56-7.95,1.97-16.14-4.37-22.49l-11.85-11.88c-13.21-13.24-26.88-26.93-40.39-40.33
			c-4.2-4.16-9.43-6.42-14.73-6.34c-5.09,0.07-9.96,2.28-13.71,6.22c-7.61,7.99-7.31,19.66,0.72,27.74
			C319.19,324.57,330.02,335.4,340.49,345.87z"/>
		<path class="st3" d="M320.8,531.08c3.49-3.57,5.34-8.42,5.22-13.64c-0.26-11.37-8.82-19.06-21.29-19.13
			c-8.26-0.04-16.65-0.04-24.76-0.03c-3.57,0-7.14,0-10.72,0.01l-10.63-0.01c-8.48-0.01-16.95-0.02-25.43,0.02
			c-8.54,0.03-13.54,3.31-16.23,6.06c-3.49,3.56-5.28,8.32-5.19,13.76c0.18,11.46,8.72,19.18,21.23,19.2
			c10.9,0.02,22.2,0.03,34.05,0.03c11.86,0,24.28-0.01,37.43-0.03C311.08,537.32,316.87,535.1,320.8,531.08z"/>
		<path class="st3" d="M559.95,337.66c-41.22-5.16-83.43,4.6-118.83,27.48c-35.29,22.82-61.63,57.24-74.15,96.93
			c-17.72,56.14-3.74,118.82,37.38,167.67c31.79,37.76,47.18,76.22,47.05,117.56c-0.03,9.63,3.73,15.42,6.89,18.59
			c4.82,4.83,11.59,7.27,20.14,7.27c0.02,0,0.03,0,0.05,0c38.77-0.04,79.15-0.12,123.46-0.24c18.03-0.05,27.47-9.34,28.05-27.61
			c0.71-22.11,4.09-40.96,10.36-57.62c9.61-25.56,26.11-46.91,39.42-62.64c13.5-15.97,24.41-35.09,31.55-55.31
			c13.34-37.79,13.52-77.74,0.5-112.49C685.57,387.22,634.47,346.99,559.95,337.66z M680.1,522.44L680.1,522.44
			c-2.69,28.82-15.13,57.79-35,81.55c-20.75,24.81-35.27,49.97-44.41,76.91c-6,17.7-9.46,34.59-10.59,51.65
			c-0.02,0.23-0.04,0.56-0.06,0.93c-0.32,0-0.61,0-0.85,0l-12.76,0c-28.46,0-56.92,0.01-85.38-0.01
			c-0.51-6.55-1.33-12.95-2.43-19.04c-7.03-38.7-24.18-74.44-52.42-109.25c-9.69-11.94-19.51-25-25.74-39.62
			c-15.39-36.1-13.99-78.22,3.74-112.67c1.08-2.09,2.23-4.18,3.42-6.21c14.46-24.64,35.03-43.64,61.16-56.46
			c25.81-12.67,53.41-16.79,82.02-12.25c53.25,8.45,90.58,37.76,110.98,87.13C679.18,483.05,681.98,502.34,680.1,522.44z"/>
	</g>
</g>
</svg>
