<?xml version="1.0" encoding="utf-8"?>
<!-- Generator: Adobe Illustrator 26.0.1, SVG Export Plug-In . SVG Version: 6.00 Build 0)  -->
<svg version="1.1" id="Layer_1" xmlns="http://www.w3.org/2000/svg" xmlns:xlink="http://www.w3.org/1999/xlink" x="0px" y="0px"
	 viewBox="0 0 1080 1080" style="enable-background:new 0 0 1080 1080;" xml:space="preserve">
<style type="text/css">
	.st0{fill:#FFFFFF;}
	.st1{fill:#25AAE1;}
	.st2{fill:#084868;}
	.st3{fill:#0F7BA7;}
	.st4{fill:#1E313A;}
	.st5{fill:#0F7BA7;stroke:#0F7BA7;stroke-width:15;}
</style>
<g>
	<path class="st4" d="M292.98,813.57l-25.06,0.34l-24.3,51.95l-28.17-51.23l-24.38,0.33l1.15,84.33l18.58-0.26l-0.65-47.53
		l25.96,47.18l11.72-0.15l21.77-47.1l0.64,46.79l23.89-0.33L292.98,813.57z"/>
	<path class="st4" d="M348.85,812.81l-25.19,0.34l1.16,84.32l25.18-0.34L348.85,812.81z"/>
	<path class="st4" d="M462.11,895.59l-1.16-84.31l-19.32,0.26l0.67,48.83l-43.69-48.24L377,812.42l1.22,89.26l19.07-18.79
		l-0.49-35.98l46.35,48.94L462.11,895.59z"/>
	<path class="st4" d="M574.26,837.04c-1.11-4.29-2.55-7.87-4.31-10.75c-1.77-2.88-4.01-5.34-6.74-7.38
		c-2.72-2.04-5.44-3.61-8.15-4.7c-2.71-1.1-5.92-1.96-9.64-2.59c-3.71-0.63-7.05-1-10.02-1.13c-2.96-0.12-6.42-0.16-10.37-0.11
		l-34.01,0.47l0.24,17.39h24.63l0-0.13l10.93-0.15c8.48-0.12,14.45,1.48,17.91,4.79c3.46,3.31,5.25,9.45,5.38,18.42
		c0.14,10-1.3,16.79-4.32,20.37c-3.02,3.58-8.95,5.43-17.8,5.55l-9.92,0.14v0.12h-26.13l0.24,17.83l34.01-0.47l1.23-0.02
		c2.3-0.03,4.12-0.08,5.46-0.14c1.34-0.06,3.46-0.21,6.38-0.46s5.32-0.62,7.21-1.12c1.89-0.5,4.25-1.27,7.1-2.32
		c2.85-1.05,5.23-2.26,7.14-3.65c1.92-1.38,3.94-3.18,6.07-5.39c2.13-2.21,3.83-4.69,5.08-7.45c1.26-2.76,2.28-6.05,3.08-9.89
		c0.79-3.84,1.16-8.08,1.09-12.73C575.96,846.17,575.37,841.33,574.26,837.04z"/>
	<path class="st4" d="M645.47,844.44l40.19-36.24l-26.67,0.37l-38.74,34.42l-0.46-33.88l-24.63,0.33l1.15,84.32l24.63-0.34
		l-0.36-26.79l7.38-6.58l29.16,32.88l30.86-0.42L645.47,844.44z"/>
	<path class="st4" d="M778.36,873.68l-49.44,0.68l-0.22-16.18l21.17-0.29l12.12-16.96l-33.52,0.46l-0.23-16.17l49.45-0.67
		l-0.24-17.6l-74.07,1.01l1.15,84.32l74.07-1.02L778.36,873.68z"/>
	<path class="st4" d="M888.93,805.43l-20.18,0.27l-27.53,40.82l-25.99-40.09l-26.91,0.37l38.08,57.88l0.36,25.93l24.81-0.34
		l-0.36-26.42L888.93,805.43z"/>
</g>
<g>
	<path class="st1" d="M617.77,416.24l-0.15-0.23c-0.5-0.76-0.97-1.48-1.21-2.25c-0.34-1.11-0.2-2.34-0.05-3.65l0.07-0.69
		c1.46-14.48-7.55-23.07-16.27-31.38c-2.88-2.74-5.86-5.58-8.44-8.6l-0.34-0.4c-0.71-0.84-1.45-1.7-2.31-2.46
		c-7.97-7.02-18.75-11.37-29.56-11.93c-10.94-0.58-23.95,2.48-27.68,12.79c-1.81,5-3.92,10.2-7.98,14.24
		c-0.21,0.01-0.41,0.03-0.62,0.04c-3.22-1.79-6.31-3.79-6.57-6.58c-1.53-16.24-16.59-21.09-29.04-20.31c-6.75,0.42-13.6,2.15-19.8,5
		c-2.53,1.16-5.44,2.62-7.9,4.65c-1.95,1.61-3.29,3.65-4.58,5.63c-1.2,1.84-2.34,3.57-3.92,4.95c-0.87,0.76-1.99,1.17-3.17,1.6
		c-1.64,0.6-3.48,1.27-4.69,3.04c-5.43,3.59-10.25,9.79-12.32,15.85c-0.82,2.42-3.35,10.78-1.25,16.95c0.57,1.68-2.5,6.19-4.53,9.17
		c-1.36,2-2.53,3.72-3.02,4.95c-4.28,10.79-4.01,25.24,0.68,35.96c1.92,4.41,1.97,9.06,2.01,14c0.02,1.82,0.03,3.69,0.15,5.54
		c0.21,3.19,0.69,7.32,2.61,11.07c0.66,1.29,1.37,2.49,2.06,3.65c1.23,2.08,2.39,4.04,3.24,6.41c5.17,14.48,12.02,24.07,20.92,29.33
		c2.77,1.64,5.12,2.97,7.59,4.2c2.01,0.99,4.09,1.9,6.19,2.69c5.63,2.13,13.91,4.56,20.79,1.1c3.62-1.82,6.37-5.08,8.18-9.7
		c0.65-1.66,0.97-3.59,1.27-5.46c0.33-2.02,0.68-4.1,1.43-5.69c1.37,0.91,2.07,2.65,2.81,4.46c0.43,1.06,0.88,2.15,1.47,3.08
		c2.35,3.67,6.21,6.24,9.62,8.51l0.43,0.29c1.95,1.3,3.97,2.64,6.32,3.38c11.16,3.49,23.3-11.13,26.41-19.63
		c0.05-0.15,0.11-0.29,0.16-0.41c0.42,0.84,0.53,2.03,0.64,3.18c0.07,0.73,0.14,1.49,0.29,2.18c0.81,3.68,2.19,7.18,4.11,10.4
		c1.48,2.49,2.98,4.24,4.7,5.53c2.29,1.71,5,2.39,7.89,2.39c8.01,0,17.41-5.25,23.16-8.46l0.43-0.24
		c5.6-3.12,10.33-6.91,14.07-11.26c4.49-5.22,9.14-14.24,11.05-21.43c0.82-3.1,2.35-5.94,3.82-8.68c2.3-4.28,4.67-8.7,4.6-14.3
		c-0.02-1.6-0.23-3.19-0.43-4.73c-0.18-1.36-0.36-2.77-0.4-4.15c-0.08-2.53,0.91-4.86,1.96-7.32l0.21-0.5
		c0.36-0.85,0.77-1.84,1.1-2.84C628.5,445.47,626.12,429.03,617.77,416.24z M592,446.44c-2.9,0.29-4.82,1.74-5.56,4.21
		c-0.73,2.47-0.01,4.68,2.15,6.58c1.22,1.08,1.82,2.07,1.77,2.92c-0.04,0.86-0.74,1.78-2.07,2.73c-0.51,0.36-1.07,0.73-1.65,1.1
		c-3.29,2.14-7.79,5.07-5.17,10.24c1.71,3.38,4.78,4.23,9.12,2.5c4.96-1.96,8.72-5.47,11.84-11.03c0.08-0.14,0.16-0.29,0.24-0.46
		c0.47-0.91,0.96-1.72,1.41-1.6c0.36,0.1,0.7,0.48,1.01,0.89c4.22,5.39,7.55,19.85,1.58,24.55c-0.2,0.16-0.42,0.28-0.63,0.41
		c-0.29,0.17-0.57,0.35-0.83,0.55c-0.57,0.45-0.98,0.98-1.37,1.5c-0.16,0.21-0.32,0.42-0.49,0.62c-1.39,1.63-3.72,2.62-6.37,2.72
		c-1.06,0.04-2.36-0.25-3.62-0.52c-2.39-0.52-4.85-1.06-6.68,0.16c-1.03,0.68-1.7,1.84-2,3.45l-0.21,1.12
		c-1.07,5.85-1.56,8.51-7.35,11c-1.75,0.75-2.93,1.85-3.42,3.17c-0.44,1.2-0.33,2.51,0.35,3.9c1.4,2.87,4.12,3.64,7.47,2.12
		c6.21-2.83,10.01-6.46,11.96-11.42c0.85-2.17,2.03-2.24,4.63-2.21c0.21,0,0.43,0.01,0.65,0.01c-1.39,1.65-2.7,3.92-3.98,6.15
		c-1.12,1.95-2.18,3.79-3.04,4.71c-4.95,5.23-10.77,7.57-16.93,10.04c-3.5,1.41-7.11,2.86-10.63,4.89
		c-2.57-1.65-3.75-4.93-4.29-7.47c-1.4-6.63-2.71-11.83-6.66-18.34c0.06-0.51,0.02-1-0.02-1.45c-0.04-0.58-0.06-0.98,0.01-1.28
		c4.61,3.39,9.85,4.76,15.57,4.09c1.92-0.23,3.31-0.9,4.14-2.02c0.73-0.99,0.96-2.24,0.7-3.73c-0.76-4.24-5.2-4.55-7.09-4.68
		c-0.5-0.04-0.97-0.06-1.41-0.08c-2.58-0.13-3.88-0.2-6.16-2.17c-4.23-3.64-5.31-9.16-3.22-16.41c2.2-2,4.42-3.99,6.62-5.98
		c2.01-0.36,3.47-1.22,4.23-2.51c0.49-0.84,0.92-2.28,0.13-4.37c-0.55-1.46-1.4-2.44-2.53-2.91c-1.87-0.77-4.05,0.04-5.53,0.71
		c-5.19,2.36-9.48,6.19-12.4,11.06c-2.73,4.56-2.6,10.12-2.49,15.03l0.03,1.5c0.08,4.79-1.46,10.11-4.45,15.38l-0.24,0.42
		c-0.55,0.95-1.12,1.94-1.43,3.07c-0.36,1.33-0.44,2.61-0.52,3.84c-0.09,1.44-0.17,2.79-0.69,4.13
		c-1.64,4.31-9.44,11.14-14.23,10.27c-0.87-0.16-1.67-0.7-2.41-1.27c-3.73-2.86-6.65-6.87-8.22-11.3c-0.64-1.8-1.35-3.63-2.1-5.57
		c-2.84-7.31-6.05-15.59-5.28-23.03c1.06-10.25-6.06-21.39-15.87-24.83c-1.57-0.55-6.34-2.23-8.76,2.41
		c-1.75,3.36-0.62,6.76,2.87,8.68c5.7,3.12,9.35,11.66,7.66,17.91c-0.79,2.91-3.07,6.33-9.24,6.26c-1.26-0.78-2.75-0.41-4.09-0.09
		c-0.58,0.14-1.14,0.28-1.62,0.31c-0.27,0.02-0.51,0.14-0.69,0.34c-2.52,2.89-2.6,5.13-2.23,6.49c0.35,1.29,1.46,3.06,4.73,4.15
		c3.95,1.32,7.63,0.25,11.18-0.78l0.66-0.19c0.55-0.16,1.05-0.41,1.52-0.65c0.69-0.35,1.2-0.59,1.7-0.6
		c0.5,2.75-0.71,4.98-2.09,7.53c-1.24,2.28-2.52,4.64-2.72,7.63l-0.07,1.16c-0.21,3.48-0.43,7.07-2.54,9.51
		c-0.1,0.11-0.15,0.16-0.15,0.18c-0.08-0.02-0.22-0.09-0.3-0.13c-2.47-1.16-5.14-1.68-7.73-2.18c-2.47-0.48-4.8-0.93-6.85-1.89
		c-3.88-1.81-9.18-5.9-12.72-9.15c-3.79-3.48-6.95-7.61-9.41-12.3c2.16,1.18,3.94,3.11,5.76,6.18c2.46,4.11,6.49,7.03,11.65,8.43
		c3.16,0.86,5.82-0.22,7.3-2.98c1.67-3.13,0.37-6.4-3.66-9.19c-3.34-2.32-5.73-4.22-6-7.68c-0.61-7.96-5.87-7.96-10.51-7.96
		c-2.35,0-4.78,0-6.82-0.89c-7.29-3.17-9.01-12.8-7.49-20.94c0.58-3.07,3.83-6.8,6.82-8.78c1.67,5.78,5.78,10.12,12.52,13.23
		c2.14,1,3.79,1.21,5.18,0.67c1.14-0.44,2.02-1.38,2.62-2.8c0.58-1.38,0.64-2.66,0.16-3.79c-0.54-1.31-1.76-2.36-3.6-3.11
		c-3.73-1.53-6.24-4-7.67-7.55c-0.09-0.6-0.07-1.02,0.08-1.2c0.1-0.13,0.43-0.36,1.49-0.44c1.38-0.1,2.51-0.66,3.29-1.62
		c0.81-1,1.15-2.38,0.95-3.88c-0.36-2.7-2.28-4.22-5.39-4.28c-5.62-0.13-9.74,0.81-13.35,3.03c-2.78,1.71-4.7,3.05-6.77,5.14
		c-0.37-0.61-0.6-1.25-0.69-1.92c-0.21-1.52-0.18-3.21-0.16-4.84c0.02-1.09,0.03-2.22-0.02-3.3c-0.12-2.62-0.27-5.59,0.21-8.42
		c0.46-2.71,1.52-5.54,2.55-8.27l0.05-0.13c0.34-0.91,0.61-1.95,0.9-3.04c0.55-2.1,1.12-4.28,2.2-5.53
		c0.44-0.51,0.67-0.56,0.67-0.57c0.45,0.18,1.08,2.04,1.38,2.94c0.31,0.93,0.6,1.8,0.98,2.41c1.36,2.23,3.06,4.24,5.07,5.95
		c4.06,3.46,8.82,5.32,13.46,5.22c3.66-0.07,5.66-1.52,5.93-4.32c0.15-1.52-0.18-2.79-0.98-3.76c-0.9-1.09-2.33-1.73-4.25-1.9
		c-4.71-0.42-11.28-4.07-12.08-9.74c0.49,0.17,1,0.35,1.5,0.53c1.1,0.39,2.23,0.78,3.31,1.15c2.81,0.94,6.41,0.12,8.38-1.92
		c1.5-1.56,1.89-3.6,1.08-5.74c-2.48-6.58-14.68-6.97-18.83-6.37c-0.67,0.1-1.51,0.12-1.78-0.33c-1.02-1.74,2.68-8.43,5.03-11.49
		c0.65-0.85,1.45-1.75,2.39-1.9c1.1-0.19,2.67,2.77,3.59,4.53c0.61,1.16,1.13,2.16,1.66,2.78c2.57,3,5.89,5.31,9.6,6.65
		c3.21,1.17,7.3,0.23,9.12-2.09c0.82-1.04,1.88-3.25-0.22-6.41c-1.41-2.13-3.46-3.52-5.44-4.87c-3.3-2.24-6.14-4.18-5.46-9.08
		c1.42-10.23,14.13-13.6,19.53-14.57l0.99-0.18c3.81-0.7,7.76-1.42,11.51-0.63c1.23,0.36,7.88,4.17,9.49,5.82
		c-0.92,0.31-2.09,0.43-3.32,0.56c-1.4,0.14-2.85,0.29-4.13,0.74c-2.72,0.96-7.44,3.07-8.53,6.3c-0.46,1.37-0.24,2.76,0.66,4.13
		c2.63,4.02,7.07,1.77,10.32,0.14c1.15-0.58,2.23-1.13,3.12-1.38c0.4-0.11,0.78-0.21,1.07-0.16c0.33,0.06,0.71,0.35,1.05,0.61
		c6.24,4.8,9.46,8.41,10.92,15.98c0.99,5.13,0.93,10.42,0.88,15.54c-0.01,1.19-0.02,2.39-0.02,3.55c-0.04,1.24-0.11,2.44-0.53,3.48
		c-0.54,1.32-2.28,2.53-3.97,3.7c-2.95,2.04-6.62,4.58-4.19,8.68c2.11,3.55,5.27,2.27,7.58,1.33c0.26-0.1,0.52-0.21,0.77-0.31
		c1.35-0.52,2.43-1.66,3.47-2.77c1.02-1.08,1.98-2.1,2.96-2.29c1.02-0.19,2.66,1.29,4.12,2.59c1.16,1.04,2.36,2.11,3.54,2.67
		c2.09,0.98,5.43,1.31,7.48-0.01c0.88-0.56,1.92-1.67,1.9-3.77c-0.02-3.03-2.77-4.76-5.2-6.28c-1.12-0.71-2.19-1.38-2.82-2.07
		c-3.72-4.1-4.37-22.34-0.02-33.28c1.26-3.17,3.5-7.01,7.01-7.28c1.87-0.14,4.8,1.24,7.39,2.47c1.4,0.66,2.72,1.28,3.81,1.64
		c1.99,0.65,3.84,0.45,5.22-0.55c1.39-1.01,2.15-2.73,2.14-4.85c-0.02-4.78-3.84-6.97-7.41-8.65c-1.56-0.74-3.2-1.06-4.79-1.37
		c-0.6-0.12-1.18-0.23-1.75-0.37c1.23-1.11,2.13-2.51,3.02-3.88l0.31-0.47c0.83-1.26,2.25-2.07,4.23-2.41
		c7.95-1.33,22.2,5.17,26.34,8.38c1.72,1.34,3.14,2.94,4.2,4.76c0.55,0.95,0.84,2.22,1.11,3.44c0.31,1.38,0.63,2.8,1.35,3.92
		c0.1,0.16,0.21,0.31,0.33,0.44c-0.26,1.09-2.81,4.47-3.57,5.25c-0.73,0.76-2.07,1.48-3.49,2.24c-3.23,1.73-7.26,3.89-5.71,8.01
		c1.15,3.06,3.67,4.08,7.1,2.87c4-1.41,7.62-3.79,10.22-6.7c1.38-1.55,2.18-3.65,2.96-5.69c0.68-1.8,1.34-3.51,2.29-4.59
		c3.43,2.47,10.67,11.53,11.92,17.29c0.31,1.4,0.22,2.44-0.2,3.04c-0.01,0-0.24,0.07-0.97-0.25c-5.54-2.39-11.84-2.06-18.2,0.95
		c-4.9,2.31-4.4,5.57-3.67,7.31c0.96,2.27,2.85,3.37,5.05,2.96c0.93-0.18,1.75-0.57,2.53-0.95c0.19-0.09,0.37-0.18,0.56-0.27
		c0.87-0.4,1.78-0.74,2.71-0.99c1.04-0.28,1.73-0.28,2.16,0c0.33,0.21,0.42,0.27-0.18,1.49c-0.32,0.64-0.67,1.35-0.66,2.12
		c-2.27,3.9-5.9,6.06-11.64,6.99c-1.65,0.12-2.94,0.73-3.75,1.75c-0.79,0.99-1.08,2.32-0.84,3.85c0.48,3.1,2.84,4.63,6.49,4.21
		c9.61-1.11,16.83-6.45,19.31-14.3l0.09-0.3c0.2-0.66,0.39-1.28,0.76-1.7c0.19-0.21,0.35-0.31,0.47-0.29
		c1.3,0.22,3.25,5.02,3.89,6.6c0.27,0.67,0.49,1.2,0.65,1.52c1.9,3.7,2.95,8.12,3.32,13.92c0.03,0.51,0.12,1.23,0.21,2.08
		c0.3,2.58,0.91,7.95-0.12,9.22c-0.02,0.02-0.13,0.09-0.38,0.12c-1.19,0.13-2.42-0.81-3.6-1.71l-0.37-0.29
		C604.82,447.46,598.54,445.79,592,446.44z"/>
</g>
<g>
	<path class="st2" d="M466.69,703.87c7.8,0.02,15.68,0.03,23.5,0.03c6.42,0,12.81,0,19.1-0.01l13.4-0.01c5.92,0,11.84,0,17.76,0
		c12.91,0,25.82,0.01,38.73-0.03c8.56-0.02,14.38-5.3,14.49-13.12c0.05-3.83-1.2-7.15-3.61-9.62c-2.62-2.68-6.4-4.11-10.91-4.15
		c-4.59-0.04-9.25-0.02-13.75-0.01c-2.26,0.01-4.52,0.01-6.78,0.01l-26.14,0c-21.78,0-43.56-0.01-65.34,0.01
		c-8.46,0-14.01,4.4-14.85,11.76c-0.48,4.19,0.56,7.86,3.02,10.62C457.13,701.4,460.59,703.86,466.69,703.87z"/>
	<path class="st2" d="M579.3,708.1c-38.86-0.04-76.65-0.04-112.3,0c-9.15,0.01-14.67,4.98-14.78,13.28
		c-0.05,3.97,1.1,7.18,3.43,9.54c2.6,2.64,6.51,3.98,11.6,3.99c12.61,0.02,25.21,0.01,37.82,0.01l17.58,0l14.93,0
		c5.93,0,11.86,0,17.79,0c7.9,0,15.79,0,23.69-0.02c4.72-0.01,8.42-1.33,10.99-3.93c1.63-1.65,3.58-4.65,3.54-9.6
		C593.53,713.32,587.92,708.11,579.3,708.1z"/>
	<path class="st2" d="M572.44,738.86l-0.12,0c-1.58,0.03-3.16,0.05-4.74,0.05c-5.51,0-11.02,0-16.52,0
		c-9.14-0.01-18.59-0.02-27.89,0.02l-2.98,0.01c-3.82,0.02-7.64,0.05-11.47,0.09c-10.67,0.1-21.7,0.2-32.51-0.08
		c-0.21-0.01-0.46-0.04-0.73-0.08c-1.77-0.21-7.16-0.84-8.95,4.04c-0.99,2.7-0.37,5.71,1.75,8.48c1.07,1.4,2.29,2.63,3.63,3.65
		c14.6,11.17,32.86,16.76,51.08,16.76c18.23,0,36.43-5.6,50.89-16.79c1.33-1.03,2.54-2.24,3.59-3.58c2.12-2.71,2.83-5.78,1.93-8.41
		C578.43,740.18,576.08,738.78,572.44,738.86z"/>
</g>
<path class="st5" d="M683.46,600.74c-4.35-4.34-8.54-8.88-13.18-12.91c-5.58-4.85-13.62-2.07-15.19,4.96
	c-0.9,4.04,0.96,7.03,3.69,9.76c14.36,14.32,28.69,28.69,43.05,43.01c1.05,1.05,2.18,2.1,3.46,2.83c2.95,1.7,6.09,1.69,9.04,0.04
	c3.13-1.75,4.79-4.52,4.78-8.17c0.01-3.46-1.94-5.86-4.24-8.15C704.38,621.69,693.94,611.2,683.46,600.74z"/>
<g>
	<path class="st3" d="M523.01,268.92c0.02,0,0.04,0,0.05,0c9.9-0.03,16.82-7.46,16.84-18.07c0.04-19.16,0.04-39.25,0.01-61.41
		c-0.01-5.79-1.81-10.64-5.21-14.03c-3.04-3.02-7.05-4.65-11.65-4.59c-10.02,0.04-16.78,7.5-16.83,18.55
		c-0.03,6.82-0.02,13.63-0.02,20.45c0,3.18,0.01,6.35,0,9.53v0c0,2.98-0.01,5.96-0.01,8.94c-0.01,7.39-0.02,15.03,0.03,22.56
		C506.3,261.5,513.2,268.92,523.01,268.92z"/>
	<path class="st3" d="M799.94,441.36c-2.32-2.36-6.6-5.17-13.85-5.2c-19.33-0.07-39.42-0.07-61.42,0
		c-10.72,0.04-18.07,6.67-18.29,16.51c-0.1,4.51,1.49,8.69,4.48,11.76c3.36,3.44,8.32,5.35,13.98,5.38
		c4.16,0.02,8.31,0.02,12.46,0.02c2.83,0,5.67,0,8.5,0l9.5,0l8.62,0c7.28,0.01,14.55,0.01,21.83-0.01
		c11.24-0.03,18.59-6.52,18.72-16.53C804.54,448.56,802.97,444.44,799.94,441.36z"/>
	<path class="st3" d="M721.88,277.81c3.7-3.7,5.47-7.97,5.28-12.65c-0.23-6.78-3.79-12.21-9.76-14.91
		c-6.68-3.01-13.76-1.74-18.94,3.41l-2.66,2.65c-13.97,13.9-28.43,28.27-42.56,42.51c-3.47,3.5-5.36,7.99-5.3,12.64
		c0.05,4.48,1.9,8.69,5.19,11.86c3.23,3.11,7.29,4.65,11.4,4.65c4.43,0,8.92-1.79,12.5-5.34v0c10.77-10.68,21.66-21.59,32.19-32.13
		C713.44,286.26,717.65,282.04,721.88,277.81z"/>
	<path class="st3" d="M387.77,579.03c-6.94-3.1-13.98-1.81-19.32,3.54c-4.98,4.98-9.97,9.96-14.96,14.94
		c-9.8,9.78-19.93,19.89-29.86,29.88c-3.57,3.59-5.5,8.13-5.45,12.79c0.05,4.38,1.86,8.51,5.1,11.63c3.38,3.26,7.45,4.88,11.56,4.88
		c4.43,0,8.92-1.88,12.67-5.61c9.85-9.79,19.83-19.77,29.47-29.43c5-5.01,10.01-10.02,15.02-15.02c3.75-3.75,5.55-7.99,5.36-12.62
		C397.22,587.15,393.73,581.69,387.77,579.03z"/>
	<path class="st3" d="M351.43,304.67c5.8,5.8,11.6,11.59,17.39,17.4v0c3.24,3.24,7.34,5.09,11.88,5.34l0.48,0.03l0.48-0.04
		c6.92-0.51,12.17-3.98,14.77-9.79c3.06-6.82,1.69-13.86-3.75-19.3l-10.18-10.19c-11.34-11.37-23.07-23.12-34.68-34.63
		c-3.6-3.57-8.1-5.51-12.65-5.44c-4.37,0.06-8.55,1.96-11.77,5.34c-6.53,6.86-6.27,16.87,0.62,23.81
		C333.14,286.39,342.44,295.68,351.43,304.67z"/>
	<path class="st3" d="M334.52,463.66c2.99-3.07,4.58-7.22,4.48-11.71c-0.23-9.76-7.57-16.36-18.28-16.42
		c-7.09-0.04-14.29-0.03-21.26-0.02c-3.07,0-6.13,0-9.2,0.01l-9.12-0.01c-7.28-0.01-14.55-0.01-21.83,0.02
		c-7.33,0.03-11.62,2.85-13.93,5.2c-2.99,3.05-4.53,7.14-4.46,11.81c0.16,9.84,7.48,16.46,18.23,16.48
		c9.36,0.02,19.06,0.03,29.23,0.03c10.18,0,20.84-0.01,32.13-0.03C326.18,469.02,331.15,467.11,334.52,463.66z"/>
	<path class="st3" d="M539.82,297.62c-35.39-4.43-71.62,3.95-102.01,23.59c-30.3,19.59-52.9,49.14-63.66,83.21
		c-15.21,48.19-3.21,102,32.09,143.93c27.29,32.42,40.5,65.43,40.39,100.92c-0.03,8.27,3.2,13.24,5.91,15.96
		c4.13,4.14,9.95,6.24,17.29,6.24c0.01,0,0.03,0,0.04,0c33.28-0.03,67.95-0.1,105.98-0.21c15.48-0.04,23.58-8.02,24.08-23.71
		c0.61-18.98,3.51-35.16,8.89-49.47c8.25-21.95,22.42-40.27,33.84-53.78c11.59-13.71,20.96-30.13,27.09-47.48
		c11.46-32.44,11.61-66.74,0.43-96.57C647.66,340.17,603.8,305.63,539.82,297.62z M642.97,456.25L642.97,456.25
		c-2.31,24.74-12.98,49.61-30.04,70.01c-17.81,21.3-30.28,42.9-38.12,66.02c-5.15,15.19-8.12,29.69-9.09,44.34
		c-0.01,0.2-0.03,0.48-0.05,0.8c-0.27,0-0.53,0-0.73,0l-10.96,0c-24.43,0-48.86,0.01-73.29-0.01c-0.44-5.62-1.14-11.12-2.09-16.35
		c-6.04-33.23-20.76-63.9-45-93.78c-8.31-10.25-16.75-21.46-22.1-34.01c-13.21-30.99-12.01-67.15,3.21-96.72
		c0.92-1.8,1.91-3.59,2.93-5.33c12.41-21.15,30.07-37.46,52.5-48.47c22.16-10.88,45.85-14.41,70.41-10.52
		c45.71,7.25,77.76,32.42,95.27,74.79C642.17,422.43,644.58,438.99,642.97,456.25z"/>
</g>
</svg>
