<?xml version="1.0" encoding="utf-8"?>
<!-- Generator: Adobe Illustrator 23.0.1, SVG Export Plug-In . SVG Version: 6.00 Build 0)  -->
<svg version="1.1" id="Layer_1" xmlns="http://www.w3.org/2000/svg" xmlns:xlink="http://www.w3.org/1999/xlink" x="0px" y="0px"
	 viewBox="0 0 768 1080" style="enable-background:new 0 0 768 1080;" xml:space="preserve">
<style type="text/css">
	.st0{fill:#231F20;}
</style>
<path d="M735.79,213.3c-2.2-17.43-4.27-33.89-5.44-50.27l-0.07-0.75c-2.54-20.95-14.7-36.85-34.21-44.77
	c-25.41-10.3-59.99-4.75-82.24,13.21c-6.96,5.63-12.39,12.21-16.15,19.44c-3.81-6.51-8.32-12.86-13.65-19.01
	c-12.17-14.14-23.92-29.4-35.3-44.16c-20.32-26.38-41.33-53.66-66.22-76.72l-1.86-1.72l-2.32-1.03
	C441-9.1,400.06,14.33,380.51,44.82c-17.99,28.06-17.03,59.43,2.47,82.02c1.08,1.42,2.17,2.84,3.26,4.25
	c-9.25-0.67-18.94-1.12-29.28-1.39l-1.55-0.04c-1.37-0.04-2.74-0.08-4.08-0.1c-26.64-0.48-53.5,0.42-79.49,1.3
	c-12.92,0.44-26.28,0.89-39.38,1.16c-8.38,0.17-15.93,0.26-23.09,0.26c-22.98-1.32-42.21,8.18-54.31,26.82
	c-16.09,24.77-16.86,62.05-1.85,90.64c10.9,20.77,28.91,33.67,50.02,36.04c-24.37,16.57-47.87,34.44-70.87,51.92
	c-16.01,12.16-32.55,24.74-49.03,36.6c-28.82,19.23-34.51,54.32-14.14,87.42c6.77,11,16.21,21,27.23,28.39
	c-19.44,5.26-36.63,17.87-47.2,33.83c-13.2,19.94-15.44,43.64-6.31,65.46c0.82,10.52,2.43,21.11,4.78,31.51
	c4.55,20.13,12.1,39.99,22.44,59.02c36.54,67.24,103.41,117.01,162.41,160.93l1.29,0.96l1.52,1c2.99,1.72,6.11,3.44,9.3,5.14
	c0.46,0.44,0.91,0.87,1.37,1.31l4.61,9.91l0.5,0.98c3.17,5.7,7.7,10.4,13.09,13.81c-13.76,7.76-23.09,22.49-23.09,39.39v119.46
	c0,24.93,20.28,45.21,45.21,45.21h314.05c24.92,0,45.2-20.28,45.2-45.21V913.34c0-24.8-20.07-44.98-44.82-45.19
	c11.62-6.88,21.64-16.51,29.1-28.45l0.95-1.53l0.57-1.71c4.72-14.07,8.41-29.31,11.26-46.58c3.98-24.06,5.71-48.24,6.99-70.8
	l0.02-0.87c0-5.55,0.07-11.1,0.17-16.66c9.11-37.01,13.72-75.6,18.18-112.96c7.56-63.3,15.38-128.75,45.53-185.69
	C752.21,343.61,743.87,277.37,735.79,213.3z M615.04,913.34v119.46c0,8.09-6.58,14.66-14.66,14.66H286.33
	c-8.09,0-14.67-6.58-14.67-14.66V913.34c0-8.09,6.58-14.67,14.67-14.67h314.05C608.46,898.67,615.04,905.25,615.04,913.34z
	 M687.63,386.74l-0.72,1.21c-33.1,62.14-41.3,130.71-49.22,197.03c-4.41,36.98-8.98,75.22-17.9,110.86l-0.42,1.68l-0.03,1.73
	c-0.12,6.18-0.21,12.35-0.21,18.52c-1.23,21.58-2.89,44.63-6.61,67.12c-2.47,14.91-5.58,28.04-9.49,40.07
	c-10.3,15.41-27.34,24.57-45.92,24.57l-271.95,0c-0.26-0.01-0.51-0.04-0.91-0.08c-2.59-0.26-4.88-1.66-6.2-3.79l-6.69-14.4
	l-2.01-1.96c-1.38-1.35-2.77-2.68-4.16-4.01l-2.49-2.38l-1.9-1c-3.24-1.71-6.42-3.45-9.45-5.17l-0.55-0.41
	c-56.47-42.04-120.48-89.68-153.81-151.02c-9-16.56-15.56-33.78-19.49-51.17c-2.2-9.74-3.64-19.67-4.29-29.5l-0.19-2.86l-1.21-2.59
	c-7.7-16.53-2.68-30.01,2.88-38.42c12.77-19.29,41.32-30.33,63.73-16.28c5.59,4.44,9.91,10.63,13.55,19.41
	c3.47,8.36,5.84,17.82,8.35,27.84c6.99,27.89,15.64,62.43,54.77,73.9c22.45,15.61,52.12,20.14,80.01,12.09
	c27.79-8.03,50-27.51,59.4-52.12c4.35-11.38,6-23.51,4.91-36.03l-0.16-1.87l-0.61-1.77c-21.29-61.87-61.83-113.14-98.68-155.12
	l-8.76-9.98l-11.1,7.29c-10.93,7.18-21.74,14.74-32.2,22.04c-20.09,14.04-40.86,28.56-62.48,40.33
	c-18.53,6.79-39.61-7.57-50.22-24.81c-4.38-7.12-16.94-31.46,5.23-46.11l0.5-0.35c16.88-12.14,33.67-24.9,49.91-37.24
	c33.79-25.69,68.73-52.24,105.15-73.6c2.71-0.97,5.32-1.55,7.96-1.76c16.77-1.31,31.34,15.27,46.72,32.89
	c6.94,7.95,14.11,16.17,21.73,22.73l40.91,35.27l-39.03-122.59l-10.89-0.26c-19.81-0.47-39.47,0.01-58.48,0.47l-2.83,0.07
	c-18.9,0.46-35.91,0.8-52.74,0.38c-15.56-0.44-24.4-11.16-29.08-20.07c-9.79-18.66-9.61-44.37,0.42-59.81
	c6.17-9.5,15.07-13.72,27.25-12.94l0.99,0.03c7.5,0,15.41-0.09,24.18-0.27c13.29-0.27,26.76-0.73,39.78-1.17
	c25.59-0.86,52.06-1.75,77.93-1.29c1.25,0.02,2.5,0.06,3.75,0.09l1.62,0.04c13.37,0.34,25.55,1.02,37.05,2.07
	c22.55,20.16,30.83,51.73,39.58,85.06c5.35,20.41,10.89,41.51,20.05,60.52l23.56,48.92l5.4-54.02c1.22-12.26,2.74-25.38,4.76-41.3
	c0.53-4.18,1.08-8.36,1.63-12.55l4.51-33.95l-3.97-5.06c-4.15-5.3-8.4-10.57-12.63-15.83l-5.02-6.25c-1.66-2.07-3.32-4.15-5-6.21
	c-4.34-5.34-8.7-10.68-13.06-16.02c-15.3-18.73-31.13-38.1-46.08-57.68l-0.66-0.81c-15.36-17.5-5.17-37.87-0.08-45.8
	c12.15-18.95,37.19-34.03,57.56-26.75c22.13,20.92,40.92,45.3,60.77,71.07c11.62,15.08,23.63,30.68,36.37,45.48
	c33.33,38.5,26.1,88.33,18.46,141.1c-3.22,22.18-6.54,45.12-6.54,67.04v39.56l26.58-29.29c41.79-46.06,33.98-104.61,27.08-156.28
	c-1.49-11.15-2.89-21.69-3.85-32.09l-0.16-1.23c-1.72-9.83,1.83-18.38,10.53-25.41c13.68-11.05,36.34-14.86,51.57-8.68
	c9.05,3.67,14.07,10.15,15.33,19.81c1.23,17.07,3.44,34.57,5.57,51.5C713.24,278.61,720.56,336.69,687.63,386.74z M155.68,499.29
	c0.62-0.22,1.23-0.46,1.84-0.7l1.59-0.75c23.46-12.68,45.24-27.9,66.3-42.62c6.68-4.67,13.52-9.45,20.38-14.13
	c31.97,37.3,65.23,81.61,83.33,132.94c0.4,7.24-0.66,14.19-3.14,20.69c-6,15.71-20.71,28.3-39.34,33.68
	c-19.78,5.71-40.59,2.36-55.68-8.96l-2.44-1.83l-2.96-0.75c-22.86-5.8-28.17-22.87-35.6-52.52c-2.67-10.66-5.43-21.68-9.77-32.13
	c-5.8-13.98-13.54-24.55-23.64-32.31L155.68,499.29z M456.7,218.67c1.35,1.69,2.7,3.37,4.05,5.06l-0.86,6.51
	C458.85,226.39,457.8,222.52,456.7,218.67z"/>
</svg>
