<?xml version="1.0" encoding="utf-8"?>
<!-- Generator: Adobe Illustrator 23.0.1, SVG Export Plug-In . SVG Version: 6.00 Build 0)  -->
<svg version="1.1" id="Layer_1" xmlns="http://www.w3.org/2000/svg" xmlns:xlink="http://www.w3.org/1999/xlink" x="0px" y="0px"
	 viewBox="0 0 1080 528" style="enable-background:new 0 0 1080 528;" xml:space="preserve">
<style type="text/css">
	.st0{fill:#231F20;}
</style>
<g>
	<path class="st0" d="M815.89,393.57c-2.29,1.93-4.53,3.74-5.76,4.49c-20.3,7-28.66,2.9-34.18-2.11c-0.63-0.54-1.3-1.06-1.99-1.51
		c-9.74-6.24-20.06-12.64-31.55-19.64c-86.94-52.88-169.21-91.47-250.05-117.17c9.32-2.23,18.73-4.1,28.3-5.58
		C612.48,277.25,737.88,348.23,815.89,393.57z"/>
	<path d="M947.48,391.04c-8.96,11.58-19.79,19.79-29.44,21.96c-6.76,1.54-12.85,0.18-19.16-4.19c-0.18-0.15-0.39-0.27-0.6-0.39
		c-12.61-7.93-28.36-17.68-46.31-28.54c-0.6-0.45-1.24-0.91-1.9-1.3c-3.02-1.75-6.03-3.5-9.08-5.28
		c-66.49-39.82-158.77-91.83-237.99-124.77c26.37,1.63,53.49,5.82,81.21,12.58c39.1,9.5,79.58,24.16,120.37,43.56
		C852.37,327.42,900.39,356.44,947.48,391.04z"/>
	<path d="M166.19,66.14v332.98c0,9.2-7.48,16.65-16.65,16.65H22.87c-9.17,0-16.65-7.45-16.65-16.65V66.14
		c0-9.2,7.48-16.65,16.65-16.65h126.67C158.71,49.49,166.19,56.94,166.19,66.14z"/>
	<path d="M1072.56,336.77c-4.1,19.76-16.98,36.14-31.31,39.82c-6.43,1.66-13.18,0.69-20.09-2.84
		c-42.05-31.31-83.89-58.67-124.35-81.3c-6.03-3.38-12.43-6.85-19.55-10.59c-121.6-64.2-238.41-89.42-347.13-74.93
		c-0.51,0.06-1.03,0.15-1.54,0.27c-45.85,11.04-131.26,31.61-141.48,104.29c-0.33,2.5-0.06,5.1,0.87,7.48
		c3.47,9.08,8.15,17.53,13.91,25.07c27.12,35.51,74.06,46.46,115.48,56.11c9.71,2.26,18.88,4.4,27.69,6.82
		c5.43,1.48,10.05,2.84,14.09,4.19c0.24,0.09,0.48,0.15,0.72,0.24c18.55,5.19,25.58,23.53,25.97,37.68
		c0.39,13.67-5.07,30.26-21.36,36.74c-14.15,0.97-28.78,1.33-43.5,1.12c-13.97-0.21-28.12-0.97-42.02-2.29
		c-75.69-7.09-145.19-29.74-201-65.55c-6.36-4.07-12.13-8.02-17.65-12.07c-0.69-0.48-1.42-0.94-2.14-1.3
		c-9.44-4.77-20.48-11.61-22.81-13.3c-1.03-0.84-2.17-1.57-3.38-2.14l-11.83-5.52c-2.17-1.33-3.59-3.65-3.86-6.27l-14.99,1.48
		l14.99-1.63c-0.03-0.24-0.06-0.51-0.06-0.66V106.45c0-18.58,9.14-35.6,24.56-45.88c12.01-3.92,25.1-7.03,39.97-9.5
		c22.44-3.68,45.43-5.34,66.94-6.58c8.36,0,17.26-0.12,27.15-0.39c0.57,0,1.18-0.06,1.75-0.15c18.19-2.62,38.04-3.5,59.04-2.59
		c33,1.45,68.75,7,112.55,17.53c0.21,0.06,0.45,0.12,0.66,0.15c6.88,1.33,14.33,3.05,22.75,5.22c0.57,0.15,1.12,0.27,1.69,0.33
		c8.02,1.15,15.96,2.38,23.38,3.71c107.51,20.33,209,57.23,301.64,109.66c8.66,4.89,17.41,10.05,26,15.26
		c48.99,29.9,94.66,64.07,135.66,101.57c0.3,0.27,0.6,0.51,0.93,0.78C1076.6,307.72,1074.27,328.44,1072.56,336.77z"/>
</g>
</svg>
