<?xml version="1.0" encoding="utf-8"?>
<!-- Generator: Adobe Illustrator 23.0.1, SVG Export Plug-In . SVG Version: 6.00 Build 0)  -->
<svg version="1.1" id="Layer_1" xmlns="http://www.w3.org/2000/svg" xmlns:xlink="http://www.w3.org/1999/xlink" x="0px" y="0px"
	 viewBox="0 0 1080 528" style="enable-background:new 0 0 1080 528;" xml:space="preserve">
<style type="text/css">
	.st0{fill:#231F20;}
</style>
<path d="M1051.81,277.69c-40.13-36.64-84.74-70.01-132.61-99.21c-8.42-5.13-16.98-10.17-25.45-14.97
	c-90.56-51.24-189.71-87.3-294.88-107.19c-7.29-1.28-14.86-2.49-22.51-3.57c-8.14-2.1-15.42-3.76-22.22-5.08
	C510.92,37.31,475.38,31.8,442.3,30.36c-21.34-0.93-41.68-0.05-60.45,2.61c-8.94,0.23-16.99,0.34-24.56,0.34
	c-0.27,0-0.54,0.01-0.81,0.02c-21.3,1.21-44.15,2.85-66.89,6.61c-16.31,2.7-30.7,6.18-43.99,10.64c-1.06,0.35-2.08,0.84-3.03,1.43
	C230.4,59.6,220.76,70,214.21,82.08c-0.19-24.31-20.01-44.03-44.37-44.03H49.77c-24.48,0-44.39,19.91-44.39,44.39l0,315.67
	c0,24.48,19.91,44.39,44.39,44.39h120.07c23.06,0,42.05-17.67,44.17-40.18c-0.46,4.99,8.9,7.89,12.32,9.63
	c6.47,3.29,12.87,6.73,19.21,10.26c17.42,9.7,33.93,20.78,51.06,30.93c3.49,2.09,10.68,7.9,14.61,7.9
	c22.79,11.44,46.65,20.72,71.08,28c31.66,9.44,64.28,15.53,97.16,18.62c13.93,1.31,28.09,2.07,42.09,2.28
	c2.69,0.04,5.38,0.06,8.06,0.06c12.74,0,25.37-0.45,37.66-1.33c1.22-0.09,2.42-0.33,3.58-0.73c25.85-8.79,42.02-33.63,41.21-63.29
	c-0.82-29.85-18.95-54.86-45.15-62.38c-4.27-1.42-9.05-2.85-14.6-4.36c-8.86-2.41-18.21-4.59-27.25-6.7
	c-36.26-8.46-73.76-17.21-93.24-42.71c-3.11-4.07-5.68-8.4-7.79-13.16c2.99-14.66,11.15-26.22,22.58-35.57
	c87.17,22.89,175.68,62.05,270.43,119.69c10.34,6.29,19.66,12.08,28.43,17.68c23.13,19.96,51.36,10.01,60.72,6.71
	c5.21-1.83,10.47-6.24,18.63-13.27c0.8-0.69,1.72-1.48,2.66-2.28c15.13,9.17,27.68,16.95,36.72,22.63
	c9.12,6.27,19.08,9.46,29.3,9.46c3.7,0,7.43-0.42,11.17-1.26c29.54-6.65,48.38-36.11,53.44-44.98c2.09-3.65,2.35-7.87,1.1-11.62
	c6.89,4.92,13.8,9.93,20.71,15.09c0.56,0.41,1.14,0.79,1.75,1.12c13.19,7.14,27.23,9.09,40.61,5.67
	c24.14-6.19,44.46-30.16,50.57-59.64C1078.46,317.62,1070.61,292.59,1051.81,277.69z M185.63,398.1c0,8.71-7.08,15.79-15.79,15.79
	H49.77c-8.71,0-15.79-7.09-15.79-15.79l0-315.67c0-8.71,7.08-15.79,15.79-15.79h120.07c8.71,0,15.79,7.08,15.79,15.79V398.1z
	 M251.35,391.89c0.4,0.34,0.67,0.62,0.85,0.8C251.93,392.4,251.65,392.14,251.35,391.89z M796.08,397.1
	c-19.24,6.64-27.18,2.73-32.41-2c-0.59-0.53-1.22-1.02-1.89-1.44c-9.23-5.9-19.01-11.98-29.9-18.61
	c-82.42-50.14-160.42-86.72-237.06-111.07c8.84-2.12,17.78-3.88,26.84-5.28c87.05,23.89,205.93,91.16,279.89,134.16
	C799.37,394.67,797.24,396.38,796.08,397.1z M898.36,411.26c-6.41,1.45-12.18,0.18-18.14-3.98c-0.19-0.13-0.38-0.26-0.58-0.38
	c-11.96-7.5-26.88-16.74-43.92-27.03c-0.56-0.45-1.15-0.86-1.78-1.23c-2.86-1.67-5.73-3.34-8.6-5.02
	c-63.05-37.75-150.5-87.05-225.63-118.28c25.01,1.55,50.71,5.52,76.99,11.92c37.06,9.02,75.45,22.92,114.1,41.31
	c45.3,21.55,90.82,49.07,135.47,81.88C917.78,401.41,907.53,409.19,898.36,411.26z M1044.83,339
	c-3.88,18.73-16.08,34.25-29.67,37.74c-6.09,1.57-12.51,0.66-19.05-2.67c-39.87-29.71-79.52-55.64-117.88-77.09
	c-5.73-3.2-11.79-6.48-18.52-10.04c-115.27-60.84-226-84.74-329.07-71.03c-0.49,0.06-0.98,0.16-1.46,0.27
	c-43.49,10.47-124.43,29.95-134.11,98.84c-0.34,2.4-0.06,4.84,0.8,7.1c3.3,8.62,7.74,16.62,13.2,23.77
	c25.71,33.66,70.21,44.04,109.47,53.2c9.2,2.15,17.89,4.18,26.25,6.45c5.16,1.4,9.53,2.71,13.37,3.99c0.22,0.08,0.45,0.15,0.68,0.21
	c17.59,4.92,24.26,22.32,24.63,35.72c0.36,12.98-4.82,28.7-20.24,34.84c-13.43,0.91-27.3,1.25-41.26,1.06
	c-13.25-0.2-26.65-0.92-39.84-2.16c-53.85-5.06-107.99-17.67-156.08-43.03c-29.15-15.37-57.29-32.71-85.91-49.04
	c-3.71-2.12-6.81-4.8-7.07-9.34V120.65c0-17.62,8.67-33.76,23.29-43.52c11.39-3.71,23.8-6.65,37.89-8.98
	c21.27-3.52,43.06-5.08,63.45-6.25c7.94,0,16.36-0.13,25.73-0.37c0.56-0.01,1.13-0.06,1.68-0.14c17.24-2.5,36.05-3.32,55.95-2.47
	c31.28,1.37,65.18,6.65,106.7,16.63c0.21,0.05,0.42,0.1,0.64,0.14c6.51,1.25,13.56,2.87,21.56,4.94c0.53,0.14,1.06,0.24,1.59,0.32
	c7.61,1.07,15.13,2.26,22.17,3.5c101.91,19.28,198.11,54.25,285.93,103.95c8.2,4.65,16.5,9.52,24.65,14.5
	c46.46,28.33,89.73,60.72,128.6,96.26c0.28,0.26,0.58,0.51,0.89,0.75C1048.68,311.45,1046.47,331.09,1044.83,339z"/>
</svg>
