<?xml version="1.0" encoding="utf-8"?>
<!-- Generator: Adobe Illustrator 23.0.1, SVG Export Plug-In . SVG Version: 6.00 Build 0)  -->
<svg version="1.1" id="Layer_1" xmlns="http://www.w3.org/2000/svg" xmlns:xlink="http://www.w3.org/1999/xlink" x="0px" y="0px"
	 viewBox="0 0 866 1080" style="enable-background:new 0 0 866 1080;" xml:space="preserve">
<style type="text/css">
	.st0{fill:#231F20;}
</style>
<path d="M830.66,275.84L575.25,20.43c-19.24-19.24-50.55-19.24-69.79,0l-97.15,97.15c-9.32,9.32-14.45,21.71-14.45,34.89
	c0,10.56,3.34,20.58,9.44,28.95c-18.1-6.46-37.97-7.7-56.73-3.36c-1.14,0.27-2.24,0.66-3.29,1.18
	c-16.03,7.97-32.15,17.82-49.28,30.1c-23.99,17.18-46.22,36.43-66.66,54.67c-0.21,0.19-0.41,0.38-0.61,0.58
	c-29.72,29.72-61.97,58.47-93.16,86.28c-32.9,29.33-66.93,59.67-98.48,91.54l-3.32,3.38c-0.15,0.15-0.3,0.31-0.44,0.47
	c-14.37,15.92-19.55,36.52-14.59,57.99c6.01,26.01,25.99,49.3,50.9,59.32c2.52,1.01,5.07,1.88,7.63,2.59
	c-8.57,8.41-16.74,17.47-23.9,27.71c-0.66,0.95-1.21,1.97-1.64,3.04c-4.87,12.26-6.12,26.2-3.62,40.33
	c6.31,35.44,36.48,70.1,74.13,73.27c-8.86,14.76-11.26,32.93-6.51,51.91c7.74,30.93,32.79,57.8,60.92,65.36
	c2.23,0.6,4.51,1.08,6.81,1.44c-41.96,41.51-50.19,51.97-95.01,96.79L70.48,942c-17.53,15.09-24.49,36.57-19.61,60.56
	c6.29,30.89,31.69,59.73,60.38,68.57c6.25,1.93,12.43,2.88,18.48,2.88c15.06,0,29.21-5.92,41.06-17.46
	c41.96-41.49,49.92-52.27,90.77-93.63c73.55-74.47,149.55-151.44,227.26-224.33c0.16,0.01,0.32,0.02,0.48,0.03
	c23.75,1.55,53.28,3.48,75.45-18.55c3.07-2.9,6.12-5.87,9.16-8.88c47.45-47.02,104.85-122.07,108.84-212.61
	c0.01-0.16,0.01-0.33,0.02-0.5l4.79-13.12c0.12-0.34,0.23-0.67,0.33-1.02c2.71-9.47,1.99-19.44-1.68-28.37
	c4.07,1.05,8.24,1.63,12.42,1.63c12.64,0,25.27-4.81,34.89-14.43l97.15-97.15C849.9,326.39,849.9,295.08,830.66,275.84z
	 M659.31,475.32l-5.43,14.85c-0.55,1.5-0.85,3.08-0.9,4.68l-0.03,1.31c-0.01,0.38-0.01,0.76-0.03,1.13
	C649.37,578.17,596.57,646.73,552.9,690c-2.9,2.88-5.82,5.72-8.76,8.49c-0.11,0.1-0.22,0.21-0.32,0.31
	c-12.64,12.64-32.04,11.37-52.59,10.04c-2.4-0.16-4.76-0.31-7.09-0.44c-4.1-0.21-8.04,1.22-11.02,4
	c-79.78,74.6-157.57,153.37-232.8,229.55c-40.79,41.3-48.68,52.01-90.43,93.3c-8.57,8.35-18.62,10.83-29.86,7.37
	c-18.28-5.64-35.82-25.85-39.93-46.01c-2.73-13.41,0.67-24.26,10.12-32.23c0.32-0.27,0.63-0.56,0.93-0.85l16.39-16.38
	C190.37,864.31,231,821.59,309.06,745.97c2.87-2.78,4.51-6.6,4.54-10.59s-1.54-7.84-4.37-10.67l-5.98-5.98
	c-2.91-2.91-6.73-4.37-10.55-4.37c-3.7,0-7.41,1.37-10.29,4.12c-10.41,9.93-20.55,20.44-30.35,30.61
	c-16.6,17.22-33.74,35-52.24,49.87c-3.81,1.1-7.79,1.45-11.85,1.04c-1.88-0.19-3.76-0.53-5.58-1.03
	c-17.86-4.8-34.56-23.21-39.71-43.79c-2.59-10.35-3.17-25.05,8.81-36.28c0.21-0.2,0.42-0.4,0.62-0.61
	c8.51-8.97,17.81-17.9,26.81-26.53c16.94-16.26,34.45-33.08,49.25-52.36c4.11-5.35,4.11-12.79,0.01-18.15
	c-4.09-5.35-11.27-7.3-17.53-4.72c-20.03,8.25-34.21,22.62-47.92,36.52c-11.07,11.22-21.56,21.85-34,27.77
	c-25.9,1.9-48.77-23.67-53.23-48.79c-1.43-8.04-0.94-15.8,1.4-22.55c11.94-16.56,27.45-29.98,43.85-44.15
	c4.31-3.73,8.62-7.45,12.87-11.24c6-5.35,6.68-14.49,1.54-20.67c-5.14-6.18-14.25-7.18-20.61-2.25c-4.88,3.78-10.13,6.19-15.61,7.17
	c-6.49,1.16-13.26,0.34-20.14-2.43c-15.65-6.3-29.21-22.07-32.97-38.36c-1.9-8.22-2.13-20.27,7.48-31.07l3.01-3.07
	c30.9-31.21,64.57-61.23,97.13-90.26c31.4-27.99,63.86-56.94,94.1-87.15c19.73-17.61,41.11-36.12,63.85-52.4
	c15.24-10.92,29.51-19.71,43.56-26.83c14.44-2.96,29.72-1.32,43.2,4.68c7.98,3.55,15.14,8.46,21.28,14.61l234.33,234.33l1.93,1.93
	c0.27,0.28,0.5,0.59,0.75,0.89c0,0,0.09,0.11,0.11,0.13C659.33,466.73,660.35,471.18,659.31,475.32z M809.57,324.53l-97.15,97.15
	c-7.61,7.6-19.98,7.6-27.59,0L429.41,166.27c-3.69-3.68-5.71-8.58-5.71-13.79c0-5.21,2.03-10.11,5.71-13.8l97.15-97.15
	c3.81-3.8,8.8-5.7,13.8-5.7c5,0,9.99,1.9,13.8,5.7l255.41,255.41c3.68,3.69,5.71,8.59,5.71,13.8S813.25,320.84,809.57,324.53z"/>
</svg>
