<?xml version="1.0" encoding="utf-8"?>
<!-- Generator: Adobe Illustrator 23.0.1, SVG Export Plug-In . SVG Version: 6.00 Build 0)  -->
<svg version="1.1" id="Layer_1" xmlns="http://www.w3.org/2000/svg" xmlns:xlink="http://www.w3.org/1999/xlink" x="0px" y="0px"
	 viewBox="0 0 768 1080" style="enable-background:new 0 0 768 1080;" xml:space="preserve">
<style type="text/css">
	.st0{fill:#231F20;}
</style>
<g>
	<path d="M620.43,932.09v125.48c0,8.5-6.93,15.43-15.4,15.43H275.11c-8.47,0-15.4-6.93-15.4-15.43V932.09
		c0-8.47,6.93-15.4,15.4-15.4h329.92C613.5,916.69,620.43,923.62,620.43,932.09z"/>
	<path d="M696.66,378.92l-0.74,1.25c-34.78,65.29-43.38,137.32-51.72,207.01c-4.62,38.82-9.43,78.99-18.8,116.43l-0.45,1.76
		l-0.03,1.83c-0.13,6.48-0.19,12.99-0.22,19.48c-1.28,22.65-3.02,46.87-6.93,70.49c-2.6,15.66-5.84,29.45-9.98,42.09
		c-10.81,16.2-28.72,25.8-48.22,25.8H273.89c-0.29,0-0.55-0.03-0.96-0.06c-2.73-0.29-5.13-1.76-6.51-3.98l-7.03-15.14l-2.12-2.05
		c-1.44-1.41-2.92-2.79-4.36-4.2l-2.63-2.5l-1.99-1.06c-3.4-1.8-6.74-3.59-9.91-5.42l-0.58-0.42
		c-59.32-44.18-126.57-94.23-161.58-158.66c-9.46-17.39-16.36-35.48-20.47-53.74c-2.31-10.24-3.85-20.66-4.52-30.99l-0.19-3.02
		l-1.25-2.73c-8.09-17.36-2.82-31.51,3.02-40.33c13.41-20.28,43.41-31.86,66.96-17.1c5.87,4.65,10.4,11.17,14.21,20.37
		c3.66,8.79,6.16,18.74,8.79,29.26c7.32,29.29,16.43,65.58,57.53,77.61c23.58,16.43,54.74,21.18,84.06,12.71
		c29.2-8.44,52.52-28.91,62.37-54.74c4.59-11.97,6.32-24.7,5.17-37.86l-0.16-1.96l-0.64-1.86c-22.36-65-64.94-118.87-103.66-162.96
		l-9.21-10.49l-11.65,7.67c-11.49,7.54-22.84,15.46-33.82,23.13c-21.11,14.76-42.93,30-65.64,42.38
		c-19.44,7.12-41.61-7.96-52.75-26.08c-4.59-7.48-17.81-33.05,5.49-48.42l0.51-0.39c17.74-12.74,35.39-26.15,52.43-39.11
		c35.52-26.98,72.22-54.86,110.47-77.32c2.86-1.03,5.58-1.6,8.37-1.83c17.61-1.38,32.92,16.04,49.06,34.55
		c7.28,8.34,14.82,16.97,22.84,23.87l42.96,37.06l-41-128.79l-11.42-0.29c-20.82-0.48-41.45,0.03-61.44,0.51l-2.98,0.06
		c-19.83,0.48-37.73,0.83-55.38,0.42c-16.36-0.48-25.64-11.74-30.58-21.11c-10.27-19.57-10.07-46.59,0.45-62.82
		c6.48-9.98,15.85-14.41,28.62-13.6l1.06,0.06c7.86,0,16.17-0.1,25.38-0.29c13.99-0.29,28.11-0.77,41.81-1.25
		c26.89-0.9,54.67-1.83,81.85-1.35c1.32,0.03,2.63,0.06,3.95,0.1l1.7,0.06c14.05,0.35,26.85,1.06,38.92,2.15
		c23.71,21.18,32.4,54.35,41.58,89.35c5.65,21.46,11.45,43.63,21.08,63.59l24.74,51.4l5.68-56.76c1.28-12.9,2.86-26.66,5.01-43.38
		c0.55-4.4,1.12-8.79,1.7-13.19l4.75-35.68l-4.17-5.33c-4.36-5.55-8.82-11.1-13.28-16.62l-5.26-6.58c-1.73-2.15-3.5-4.33-5.26-6.51
		c-4.56-5.61-9.14-11.23-13.7-16.81c-16.11-19.7-32.73-40.04-48.42-60.61l-0.71-0.87c-16.11-18.38-5.42-39.75-0.06-48.09
		c12.77-19.92,39.08-35.74,60.45-28.11c23.26,21.98,42.99,47.58,63.85,74.66c12.19,15.85,24.83,32.21,38.21,47.77
		c35,40.43,27.4,92.79,19.38,148.2c-3.37,23.33-6.87,47.42-6.87,70.42v41.58l27.91-30.8c43.89-48.35,35.68-109.89,28.46-164.14
		c-1.57-11.74-3.05-22.78-4.04-33.72l-0.19-1.28c-1.8-10.33,1.92-19.31,11.07-26.69c14.37-11.61,38.18-15.63,54.19-9.11
		c9.5,3.85,14.76,10.65,16.11,20.79c1.28,17.93,3.59,36.32,5.84,54.09C723.58,265.34,731.25,326.34,696.66,378.92z"/>
</g>
</svg>
