<?xml version="1.0" encoding="utf-8"?>
<!-- Generator: Adobe Illustrator 23.0.1, SVG Export Plug-In . SVG Version: 6.00 Build 0)  -->
<svg version="1.1" id="Layer_1" xmlns="http://www.w3.org/2000/svg" xmlns:xlink="http://www.w3.org/1999/xlink" x="0px" y="0px"
	 viewBox="0 0 866 1080" style="enable-background:new 0 0 866 1080;" xml:space="preserve">
<style type="text/css">
	.st0{fill:#231F20;}
</style>
<g>
	<path d="M677.52,474.76c-0.04,0.18-0.11,0.4-0.18,0.58l-6.01,16.46c-0.18,0.55-0.29,1.13-0.33,1.71l-0.04,1.02
		c0,0.47,0,0.95-0.04,1.42v1.24c-1.6,36.14-12.78,73.33-33.29,110.48c-17.92,32.46-42.44,64.22-72.89,94.42
		c-3.46,3.42-6.52,6.37-9.29,9l-0.15,0.11l-0.11,0.15c-8.74,8.74-20.36,12.49-38.8,12.49c-6.37,0-12.97-0.44-19.34-0.87
		c-2.44-0.15-4.96-0.29-7.43-0.44l-2.73-0.15c-1.49-0.11-2.95,0.44-4.04,1.46l-2,1.86c-83.75,78.32-129.39,123.74-208.36,203.74
		c-42.84,43.38-87.13,88.23-131.1,131.68c-7.07,6.88-15.12,10.38-23.86,10.38c-9.98,0-20.98-4.59-30.93-12.93
		c-9.91-8.27-18.07-19.74-22.33-31.47c-3.97-10.86-8.05-31.29,9.44-46.04l0.22-0.18c0.11-0.07,0.22-0.18,0.33-0.29l17.41-17.41
		c87.1-87.1,129.79-128.33,211.68-207.63l4.66-4.55c2.22-2.11,2.26-5.65,0.07-7.8l-4.33-4.33c-0.07-0.11-0.15-0.18-0.25-0.29
		l-6.3-6.3c-0.11-0.11-0.18-0.18-0.29-0.25l-4.15-4.15c-2.08-2.11-5.5-2.15-7.65-0.11l-4.55,4.33
		c-10.86,10.38-21.49,21.38-31.76,32.06c-17.41,18.07-35.44,36.76-54.93,52.45c-0.58,0.47-1.28,0.84-2,1.02
		c-3.13,0.87-6.37,1.31-9.62,1.31c-1.28,0-2.55-0.07-3.86-0.18c-2.19-0.22-4.33-0.62-6.45-1.2c-20-5.36-38.65-25.86-44.4-48.7
		c-2.4-9.73-4.3-28.05,10.34-41.78l0.26-0.22l0.25-0.26c9-9.51,18.8-18.91,28.27-28.01c17.7-16.97,35.99-34.53,51.36-54.57
		c1.75-2.29,2.51-4.77,2.51-7.18c0-7.76-7.9-14.61-16.5-11.07c-20.33,8.38-34.97,23.17-49.1,37.52
		c-11.77,11.95-22.95,23.28-36.46,29.8c-0.65,0.29-1.35,0.47-2.04,0.51c-0.91,0.07-1.86,0.07-2.77,0.07
		c-12.6,0-25.5-5.79-36.25-16.28c-10.53-10.31-17.99-24.22-20.47-38.18c-1.6-8.96-1.09-17.67,1.53-25.32
		c0.15-0.51,0.4-0.98,0.73-1.42c12.79-17.67,29.18-31.84,46.48-46.81l3.93-3.39c0.07-0.07,0.15-0.15,0.22-0.22
		c1.79-1.53,3.53-3.06,5.32-4.63c2.26-1.97,2.51-5.35,0.62-7.61l-4.7-5.65l-3.21-3.86c-0.18-0.22-0.33-0.4-0.51-0.58l-0.18-0.25
		c-1.75-2.11-4.77-2.62-7.1-1.17c-0.26,0.18-0.55,0.33-0.8,0.51c-0.04,0-0.07,0-0.11,0.04c-0.51,0.33-1.06,0.62-1.6,0.91
		c-3.75,2-7.65,3.39-11.66,4.08c-2.19,0.4-4.44,0.58-6.7,0.58c-5.43,0-10.97-1.13-16.5-3.35c-17.81-7.14-32.64-24.41-36.9-42.91
		c-2.22-9.54-2.48-23.5,8.78-36.06l0.98-1.02c0.73-0.76,1.49-1.53,2.26-2.29c32.53-32.86,67.94-64.44,102.18-94.96
		c32.93-29.36,66.99-59.7,98.68-91.36c0.07-0.07,0.15-0.15,0.22-0.22c20.76-18.54,43.31-38.07,67.32-55.26
		c16.1-11.51,31.18-20.84,46.04-28.38c0.44-0.22,0.91-0.36,1.38-0.47c5.1-1.02,10.35-1.57,15.55-1.57c11.07,0,21.82,2.3,31.87,6.78
		c8.82,3.93,16.72,9.33,23.5,16.14L672.71,457.6c0.25,0.25,0.62,0.73,1.06,1.24l0.07,0.11
		C677.52,463.43,678.87,469.26,677.52,474.76z"/>
	<path d="M303.75,738.85L296.9,732c0.11,0.07,0.18,0.15,0.29,0.25l6.3,6.3C303.6,738.67,303.67,738.74,303.75,738.85z"/>
	<path d="M107.15,539.45l0.18,0.25c-2.19-2.04-5.46-2.44-8.09-0.91c0.26-0.18,0.55-0.33,0.8-0.51
		C102.38,536.83,105.4,537.34,107.15,539.45z"/>
	<path d="M292.75,727.85l4.15,4.15c-4.55-4.3-11.77-4.34-16.36,0.07l4.55-4.33C287.25,725.7,290.67,725.74,292.75,727.85z"/>
	<path d="M308.01,750.98l-4.66,4.55c2.4-2.33,3.64-5.46,3.64-8.56c0-2.95-1.06-5.83-3.24-8.12l4.33,4.33
		C310.27,745.33,310.23,748.87,308.01,750.98z"/>
	<g>
		<path d="M834.35,318.19L732.3,420.24c-4.58,4.58-10.67,7.1-17.15,7.1c-6.48,0-12.57-2.52-17.16-7.1L429.71,151.96
			c-4.58-4.58-7.11-10.67-7.11-17.15s2.52-12.57,7.11-17.15L531.76,15.6c4.58-4.58,10.67-7.1,17.15-7.1
			c6.48,0,12.57,2.52,17.15,7.11l268.29,268.28C843.81,293.35,843.81,308.74,834.35,318.19z"/>
		<path d="M834.35,318.19L732.3,420.24c-4.58,4.58-10.67,7.1-17.15,7.1c-6.48,0-12.57-2.52-17.16-7.1L429.71,151.96
			c-4.58-4.58-7.11-10.67-7.11-17.15s2.52-12.57,7.11-17.15L531.76,15.6c4.58-4.58,10.67-7.1,17.15-7.1
			c6.48,0,12.57,2.52,17.15,7.11l268.29,268.28C843.81,293.35,843.81,308.74,834.35,318.19z"/>
	</g>
</g>
</svg>
